<mxfile host="app.diagrams.net" modified="2024-07-13T14:55:25.082Z" agent="Mozilla/5.0 (Windows NT 10.0; Win64; x64) AppleWebKit/537.36 (KHTML, like Gecko) Chrome/126.0.0.0 Safari/537.36 Edg/126.0.0.0" version="24.6.5" etag="-WTRenwSf2wrOQ2Nb9Ad" type="github">
  <diagram name="第 1 页" id="2q5Fwde51ZWy4JRSvFPY">
    <mxGraphModel>
      <root>
        <mxCell id="0" />
        <mxCell id="1" parent="0" />
      </root>
    </mxGraphModel>
  </diagram>
</mxfile>
